<?xml version="1.0" ?><!DOCTYPE svg  PUBLIC '-//W3C//DTD SVG 1.1//EN'  'http://www.w3.org/Graphics/SVG/1.1/DTD/svg11.dtd'><svg enable-background="new 0 0 24 24" height="24px" id="Layer_1" version="1.1" viewBox="0 0 24 24" width="24px" xml:space="preserve" xmlns="http://www.w3.org/2000/svg" xmlns:xlink="http://www.w3.org/1999/xlink"><g><path fill="#749940" d="M20.5,3.5C18.4,1.3,15.4,0,12.1,0C5.8,0,0.7,5,0.2,11h0.9h1.1h2h1.9h0.1c0.5-3,2.9-5,5.9-5c1.7,0,3.2,0.7,4.2,1.8L13.1,11   H24V0L20.5,3.5z M22,9h-3.9l1.2-1.2l-1.5-1.5C16.3,4.9,14.3,4,12.1,4C8.8,4,5.9,6,4.7,9H2.6c1.3-4,5.1-7,9.5-7   c2.8,0,5.3,1.1,7.1,2.9l1.4,1.5L22,5V9z"/><path fill="#749940" d="M22.1,13h-2h-1.9h-0.1c-0.5,3-2.9,5-5.9,5c-1.7,0-3.2-0.7-4.2-1.8l3.2-3.2H0v11l3.6-3.5c2.2,2.2,5.2,3.5,8.5,3.5   c6.3,0,11.5-5,12-11h-0.9H22.1z M12.2,22c-2.8,0-5.3-1.1-7.1-2.9l-1.6-1.5L2,19v-4h4.2L5,16.2l1.5,1.5c1.4,1.4,3.4,2.3,5.7,2.3   c3.4,0,6.2-2,7.4-5h2.1C20.4,19,16.6,22,12.2,22z"/></g></svg>